<mxfile host="app.diagrams.net" modified="2022-09-20T21:25:08.354Z" agent="5.0 (Windows NT 10.0; Win64; x64) AppleWebKit/537.36 (KHTML, like Gecko) Chrome/105.0.0.0 Safari/537.36" etag="_E1QL-dPprSCr7_3M_2b" version="20.3.3" type="github">
  <diagram id="oRJFPwt8kXtktM3GLizD" name="Página-1">
    <mxGraphModel dx="798" dy="452" grid="1" gridSize="10" guides="1" tooltips="1" connect="1" arrows="1" fold="1" page="1" pageScale="1" pageWidth="827" pageHeight="1169" math="0" shadow="0">
      <root>
        <mxCell id="0" />
        <mxCell id="1" parent="0" />
        <mxCell id="zQe8B2cF-vCqhjeNPfhg-1" value="INIT" style="rounded=1;whiteSpace=wrap;html=1;" vertex="1" parent="1">
          <mxGeometry x="340" y="70" width="120" height="60" as="geometry" />
        </mxCell>
        <mxCell id="zQe8B2cF-vCqhjeNPfhg-2" value="" style="endArrow=classic;html=1;rounded=0;exitX=0.5;exitY=1;exitDx=0;exitDy=0;" edge="1" source="zQe8B2cF-vCqhjeNPfhg-1" parent="1">
          <mxGeometry width="50" height="50" relative="1" as="geometry">
            <mxPoint x="389" y="210" as="sourcePoint" />
            <mxPoint x="400" y="180" as="targetPoint" />
          </mxGeometry>
        </mxCell>
        <mxCell id="zQe8B2cF-vCqhjeNPfhg-16" style="edgeStyle=orthogonalEdgeStyle;rounded=0;orthogonalLoop=1;jettySize=auto;html=1;exitX=0.5;exitY=1;exitDx=0;exitDy=0;entryX=0.5;entryY=0;entryDx=0;entryDy=0;" edge="1" parent="1" source="zQe8B2cF-vCqhjeNPfhg-3">
          <mxGeometry relative="1" as="geometry">
            <mxPoint x="400" y="265" as="targetPoint" />
          </mxGeometry>
        </mxCell>
        <mxCell id="zQe8B2cF-vCqhjeNPfhg-3" value="&lt;span id=&quot;docs-internal-guid-e8acc9ae-7fff-0325-3b27-8d807d6d3b02&quot;&gt;&lt;span style=&quot;font-size: 12pt; font-family: Arial; background-color: transparent; font-variant-numeric: normal; font-variant-east-asian: normal; vertical-align: baseline;&quot;&gt;escribir (“palabra: ”)&lt;/span&gt;&lt;/span&gt;" style="shape=parallelogram;perimeter=parallelogramPerimeter;whiteSpace=wrap;html=1;fixedSize=1;" vertex="1" parent="1">
          <mxGeometry x="295" y="180" width="210" height="40" as="geometry" />
        </mxCell>
        <mxCell id="zQe8B2cF-vCqhjeNPfhg-4" value="IF" style="rhombus;whiteSpace=wrap;html=1;" vertex="1" parent="1">
          <mxGeometry x="310" y="270" width="180" height="40" as="geometry" />
        </mxCell>
        <mxCell id="zQe8B2cF-vCqhjeNPfhg-5" value="" style="endArrow=none;html=1;rounded=0;entryX=1;entryY=0.5;entryDx=0;entryDy=0;" edge="1" target="zQe8B2cF-vCqhjeNPfhg-4" parent="1">
          <mxGeometry width="50" height="50" relative="1" as="geometry">
            <mxPoint x="570" y="290" as="sourcePoint" />
            <mxPoint x="470" y="250" as="targetPoint" />
          </mxGeometry>
        </mxCell>
        <mxCell id="zQe8B2cF-vCqhjeNPfhg-6" value="" style="endArrow=none;html=1;rounded=0;entryX=1;entryY=0.5;entryDx=0;entryDy=0;" edge="1" parent="1">
          <mxGeometry width="50" height="50" relative="1" as="geometry">
            <mxPoint x="310" y="289.5" as="sourcePoint" />
            <mxPoint x="230" y="289.5" as="targetPoint" />
          </mxGeometry>
        </mxCell>
        <mxCell id="zQe8B2cF-vCqhjeNPfhg-7" value="" style="endArrow=classic;html=1;rounded=0;" edge="1" parent="1">
          <mxGeometry width="50" height="50" relative="1" as="geometry">
            <mxPoint x="570" y="290" as="sourcePoint" />
            <mxPoint x="570" y="350" as="targetPoint" />
          </mxGeometry>
        </mxCell>
        <mxCell id="zQe8B2cF-vCqhjeNPfhg-21" style="edgeStyle=orthogonalEdgeStyle;rounded=0;orthogonalLoop=1;jettySize=auto;html=1;fontSize=12;" edge="1" parent="1" source="zQe8B2cF-vCqhjeNPfhg-19">
          <mxGeometry relative="1" as="geometry">
            <mxPoint x="575" y="520" as="targetPoint" />
          </mxGeometry>
        </mxCell>
        <mxCell id="zQe8B2cF-vCqhjeNPfhg-19" value="&lt;span style=&quot;font-size: 12px;&quot; id=&quot;docs-internal-guid-3b5fbdbf-7fff-03f5-85fc-6f288ebf0f15&quot;&gt;&lt;p style=&quot;line-height:1.2;margin-top:0pt;margin-bottom:0pt;&quot; dir=&quot;ltr&quot;&gt;&lt;span style=&quot;font-family: Arial; background-color: transparent; font-variant-numeric: normal; font-variant-east-asian: normal; vertical-align: baseline;&quot;&gt;si palabra es consonante&amp;nbsp;&lt;/span&gt;&lt;/p&gt;&lt;div&gt;&lt;span style=&quot;font-family: Arial; background-color: transparent; font-variant-numeric: normal; font-variant-east-asian: normal; vertical-align: baseline;&quot;&gt;&lt;br&gt;&lt;/span&gt;&lt;/div&gt;&lt;/span&gt;" style="shape=parallelogram;perimeter=parallelogramPerimeter;whiteSpace=wrap;html=1;fixedSize=1;fontSize=11;" vertex="1" parent="1">
          <mxGeometry x="480" y="440" width="190" height="40" as="geometry" />
        </mxCell>
        <mxCell id="zQe8B2cF-vCqhjeNPfhg-77" style="edgeStyle=orthogonalEdgeStyle;rounded=0;orthogonalLoop=1;jettySize=auto;html=1;exitX=0.5;exitY=1;exitDx=0;exitDy=0;fontSize=13;" edge="1" parent="1" source="zQe8B2cF-vCqhjeNPfhg-20">
          <mxGeometry relative="1" as="geometry">
            <mxPoint x="574.8095238095239" y="610" as="targetPoint" />
          </mxGeometry>
        </mxCell>
        <mxCell id="zQe8B2cF-vCqhjeNPfhg-20" value="&lt;span id=&quot;docs-internal-guid-eba7c26c-7fff-d30b-3eae-3051ea7ec871&quot;&gt;&lt;span style=&quot;font-family: Arial; background-color: transparent; font-variant-numeric: normal; font-variant-east-asian: normal; vertical-align: baseline;&quot;&gt;&lt;font style=&quot;font-size: 13px;&quot;&gt;escribir(“La palabra es consonante”)&lt;/font&gt;&lt;/span&gt;&lt;/span&gt;" style="rounded=0;whiteSpace=wrap;html=1;fontSize=12;" vertex="1" parent="1">
          <mxGeometry x="502.5" y="520" width="145" height="50" as="geometry" />
        </mxCell>
        <mxCell id="zQe8B2cF-vCqhjeNPfhg-50" value="&lt;span style=&quot;font-size: 12px;&quot; id=&quot;docs-internal-guid-3b5fbdbf-7fff-03f5-85fc-6f288ebf0f15&quot;&gt;&lt;p style=&quot;line-height:1.2;margin-top:0pt;margin-bottom:0pt;&quot; dir=&quot;ltr&quot;&gt;SI palabra es otro&lt;/p&gt;&lt;/span&gt;" style="shape=parallelogram;perimeter=parallelogramPerimeter;whiteSpace=wrap;html=1;fixedSize=1;fontSize=11;" vertex="1" parent="1">
          <mxGeometry x="140" y="350" width="190" height="40" as="geometry" />
        </mxCell>
        <mxCell id="zQe8B2cF-vCqhjeNPfhg-52" value="" style="endArrow=classic;html=1;rounded=0;fontSize=13;" edge="1" parent="1">
          <mxGeometry width="50" height="50" relative="1" as="geometry">
            <mxPoint x="230" y="290" as="sourcePoint" />
            <mxPoint x="230" y="340" as="targetPoint" />
          </mxGeometry>
        </mxCell>
        <mxCell id="zQe8B2cF-vCqhjeNPfhg-65" style="edgeStyle=orthogonalEdgeStyle;rounded=0;orthogonalLoop=1;jettySize=auto;html=1;fontSize=12;" edge="1" source="zQe8B2cF-vCqhjeNPfhg-66" parent="1">
          <mxGeometry relative="1" as="geometry">
            <mxPoint x="565" y="700" as="targetPoint" />
          </mxGeometry>
        </mxCell>
        <mxCell id="zQe8B2cF-vCqhjeNPfhg-66" value="&lt;span style=&quot;font-size: 12px;&quot; id=&quot;docs-internal-guid-3b5fbdbf-7fff-03f5-85fc-6f288ebf0f15&quot;&gt;&lt;p style=&quot;line-height:1.2;margin-top:0pt;margin-bottom:0pt;&quot; dir=&quot;ltr&quot;&gt;&lt;span style=&quot;font-family: Arial; background-color: transparent; font-variant-numeric: normal; font-variant-east-asian: normal; vertical-align: baseline;&quot;&gt;si palabra es vocal&amp;nbsp;&lt;/span&gt;&lt;/p&gt;&lt;div&gt;&lt;span style=&quot;font-family: Arial; background-color: transparent; font-variant-numeric: normal; font-variant-east-asian: normal; vertical-align: baseline;&quot;&gt;&lt;br&gt;&lt;/span&gt;&lt;/div&gt;&lt;/span&gt;" style="shape=parallelogram;perimeter=parallelogramPerimeter;whiteSpace=wrap;html=1;fixedSize=1;fontSize=11;" vertex="1" parent="1">
          <mxGeometry x="470" y="620" width="190" height="40" as="geometry" />
        </mxCell>
        <mxCell id="zQe8B2cF-vCqhjeNPfhg-75" style="edgeStyle=orthogonalEdgeStyle;rounded=0;orthogonalLoop=1;jettySize=auto;html=1;exitX=0.5;exitY=1;exitDx=0;exitDy=0;entryX=0.5;entryY=0;entryDx=0;entryDy=0;fontSize=13;" edge="1" parent="1" source="zQe8B2cF-vCqhjeNPfhg-67" target="zQe8B2cF-vCqhjeNPfhg-69">
          <mxGeometry relative="1" as="geometry" />
        </mxCell>
        <mxCell id="zQe8B2cF-vCqhjeNPfhg-67" value="&lt;span id=&quot;docs-internal-guid-eba7c26c-7fff-d30b-3eae-3051ea7ec871&quot;&gt;&lt;span style=&quot;font-family: Arial; background-color: transparent; font-variant-numeric: normal; font-variant-east-asian: normal; vertical-align: baseline;&quot;&gt;&lt;font style=&quot;font-size: 13px;&quot;&gt;escribir(“La palabra es vocal”)&lt;/font&gt;&lt;/span&gt;&lt;/span&gt;" style="rounded=0;whiteSpace=wrap;html=1;fontSize=12;" vertex="1" parent="1">
          <mxGeometry x="492.5" y="700" width="145" height="50" as="geometry" />
        </mxCell>
        <mxCell id="zQe8B2cF-vCqhjeNPfhg-68" style="edgeStyle=orthogonalEdgeStyle;rounded=0;orthogonalLoop=1;jettySize=auto;html=1;fontSize=12;" edge="1" source="zQe8B2cF-vCqhjeNPfhg-69" parent="1">
          <mxGeometry relative="1" as="geometry">
            <mxPoint x="565" y="880" as="targetPoint" />
          </mxGeometry>
        </mxCell>
        <mxCell id="zQe8B2cF-vCqhjeNPfhg-69" value="&lt;span style=&quot;font-size: 12px;&quot; id=&quot;docs-internal-guid-3b5fbdbf-7fff-03f5-85fc-6f288ebf0f15&quot;&gt;&lt;p style=&quot;line-height:1.2;margin-top:0pt;margin-bottom:0pt;&quot; dir=&quot;ltr&quot;&gt;&lt;span style=&quot;font-family: Arial; background-color: transparent; font-variant-numeric: normal; font-variant-east-asian: normal; vertical-align: baseline;&quot;&gt;si palabra es numero&amp;nbsp;&lt;/span&gt;&lt;/p&gt;&lt;div&gt;&lt;span style=&quot;font-family: Arial; background-color: transparent; font-variant-numeric: normal; font-variant-east-asian: normal; vertical-align: baseline;&quot;&gt;&lt;br&gt;&lt;/span&gt;&lt;/div&gt;&lt;/span&gt;" style="shape=parallelogram;perimeter=parallelogramPerimeter;whiteSpace=wrap;html=1;fixedSize=1;fontSize=11;" vertex="1" parent="1">
          <mxGeometry x="470" y="800" width="190" height="40" as="geometry" />
        </mxCell>
        <mxCell id="zQe8B2cF-vCqhjeNPfhg-78" style="edgeStyle=orthogonalEdgeStyle;rounded=0;orthogonalLoop=1;jettySize=auto;html=1;exitX=0.5;exitY=1;exitDx=0;exitDy=0;fontSize=13;" edge="1" parent="1" source="zQe8B2cF-vCqhjeNPfhg-70">
          <mxGeometry relative="1" as="geometry">
            <mxPoint x="460" y="1000" as="targetPoint" />
          </mxGeometry>
        </mxCell>
        <mxCell id="zQe8B2cF-vCqhjeNPfhg-70" value="&lt;span id=&quot;docs-internal-guid-eba7c26c-7fff-d30b-3eae-3051ea7ec871&quot;&gt;&lt;span style=&quot;font-family: Arial; background-color: transparent; font-variant-numeric: normal; font-variant-east-asian: normal; vertical-align: baseline;&quot;&gt;&lt;font style=&quot;font-size: 13px;&quot;&gt;escribir(“La palabra es numero”)&lt;/font&gt;&lt;/span&gt;&lt;/span&gt;" style="rounded=0;whiteSpace=wrap;html=1;fontSize=12;" vertex="1" parent="1">
          <mxGeometry x="492.5" y="880" width="145" height="50" as="geometry" />
        </mxCell>
        <mxCell id="zQe8B2cF-vCqhjeNPfhg-74" style="edgeStyle=orthogonalEdgeStyle;rounded=0;orthogonalLoop=1;jettySize=auto;html=1;exitX=0.5;exitY=1;exitDx=0;exitDy=0;fontSize=13;" edge="1" parent="1" source="zQe8B2cF-vCqhjeNPfhg-72">
          <mxGeometry relative="1" as="geometry">
            <mxPoint x="570" y="430" as="targetPoint" />
          </mxGeometry>
        </mxCell>
        <mxCell id="zQe8B2cF-vCqhjeNPfhg-72" value="si palabra" style="shape=parallelogram;perimeter=parallelogramPerimeter;whiteSpace=wrap;html=1;fixedSize=1;fontSize=13;" vertex="1" parent="1">
          <mxGeometry x="450" y="360" width="230" height="40" as="geometry" />
        </mxCell>
        <mxCell id="zQe8B2cF-vCqhjeNPfhg-83" style="edgeStyle=orthogonalEdgeStyle;rounded=0;orthogonalLoop=1;jettySize=auto;html=1;exitX=0.5;exitY=1;exitDx=0;exitDy=0;entryX=0.612;entryY=-0.077;entryDx=0;entryDy=0;entryPerimeter=0;fontSize=14;" edge="1" parent="1" source="zQe8B2cF-vCqhjeNPfhg-79" target="zQe8B2cF-vCqhjeNPfhg-81">
          <mxGeometry relative="1" as="geometry" />
        </mxCell>
        <mxCell id="zQe8B2cF-vCqhjeNPfhg-79" value="&lt;span style=&quot;font-size: 14px;&quot; id=&quot;docs-internal-guid-086677df-7fff-83ae-5707-f926cbedaff7&quot;&gt;&lt;p style=&quot;line-height:1.2;margin-top:0pt;margin-bottom:0pt;&quot; dir=&quot;ltr&quot;&gt;&lt;span style=&quot;font-family: Arial; background-color: transparent; font-variant-numeric: normal; font-variant-east-asian: normal; vertical-align: baseline;&quot;&gt;&amp;nbsp;&amp;nbsp;escribir(“La palabra es otro”)&lt;/span&gt;&lt;/p&gt;&lt;div&gt;&lt;span style=&quot;font-family: Arial; background-color: transparent; font-variant-numeric: normal; font-variant-east-asian: normal; vertical-align: baseline;&quot;&gt;&lt;br&gt;&lt;/span&gt;&lt;/div&gt;&lt;/span&gt;" style="rounded=0;whiteSpace=wrap;html=1;fontSize=13;" vertex="1" parent="1">
          <mxGeometry x="360" y="1010" width="210" height="40" as="geometry" />
        </mxCell>
        <mxCell id="zQe8B2cF-vCqhjeNPfhg-80" value="" style="curved=1;endArrow=classic;html=1;rounded=0;fontSize=14;exitX=0.5;exitY=1;exitDx=0;exitDy=0;entryX=0;entryY=0;entryDx=0;entryDy=0;" edge="1" parent="1" source="zQe8B2cF-vCqhjeNPfhg-50" target="zQe8B2cF-vCqhjeNPfhg-79">
          <mxGeometry width="50" height="50" relative="1" as="geometry">
            <mxPoint x="240" y="530" as="sourcePoint" />
            <mxPoint x="320" y="850" as="targetPoint" />
            <Array as="points">
              <mxPoint x="190" y="450" />
              <mxPoint x="230" y="820" />
            </Array>
          </mxGeometry>
        </mxCell>
        <mxCell id="zQe8B2cF-vCqhjeNPfhg-81" value="end" style="rounded=1;whiteSpace=wrap;html=1;fontSize=14;" vertex="1" parent="1">
          <mxGeometry x="425" y="1070" width="65" height="30" as="geometry" />
        </mxCell>
      </root>
    </mxGraphModel>
  </diagram>
</mxfile>
